<svg width="1158" height="1502" viewBox="0 0 1158 1502" fill="none" xmlns="http://www.w3.org/2000/svg">
<g opacity="0.2" filter="url(#filter0_f_175_190)">
<ellipse cx="579.5" cy="751" rx="670.5" ry="350" fill="#338AF3"/>
</g>
<path d="M100.035 987C101.53 987 102.662 987.63 103.431 988.891C104.213 990.138 104.605 991.953 104.605 994.336C104.605 996.719 104.213 998.541 103.431 999.802C102.662 1001.06 101.53 1001.69 100.035 1001.69C98.5536 1001.69 97.4216 1001.06 96.639 999.802C95.8564 998.541 95.4651 996.719 95.4651 994.336C95.4651 991.967 95.8564 990.152 96.639 988.891C97.4216 987.63 98.5536 987 100.035 987ZM96.9534 994.336C96.9534 996.026 97.1072 997.35 97.4146 998.306L102.068 989.099C101.579 988.448 100.901 988.122 100.035 988.122C99.0706 988.122 98.316 988.635 97.771 989.66C97.2259 990.672 96.9534 992.23 96.9534 994.336ZM100.035 1000.55C101.013 1000.55 101.775 1000.04 102.32 999.033C102.865 998.008 103.137 996.442 103.137 994.336C103.137 992.549 102.963 991.163 102.613 990.18L97.9596 999.469C98.4627 1000.19 99.1545 1000.55 100.035 1000.55Z" fill="url(#paint0_linear_175_190)" fill-opacity="0.6"/>
<path d="M101.293 1024.13H104.374V1025.24H96.3874V1024.13H99.9511V1012.46L96.5551 1014.47L95.9682 1013.54L100.161 1010.96H101.293V1024.13Z" fill="url(#paint1_linear_175_190)" fill-opacity="0.6"/>
<path d="M100.035 1034.5C101.53 1034.5 102.662 1035.13 103.431 1036.39C104.213 1037.64 104.605 1039.46 104.605 1041.84C104.605 1044.22 104.213 1046.04 103.431 1047.3C102.662 1048.56 101.53 1049.2 100.035 1049.2C98.5536 1049.2 97.4216 1048.56 96.639 1047.3C95.8564 1046.04 95.4651 1044.22 95.4651 1041.84C95.4651 1039.47 95.8564 1037.65 96.639 1036.39C97.4216 1035.13 98.5536 1034.5 100.035 1034.5ZM96.9534 1041.84C96.9534 1043.53 97.1072 1044.85 97.4146 1045.81L102.068 1036.6C101.579 1035.95 100.901 1035.62 100.035 1035.62C99.0706 1035.62 98.316 1036.14 97.771 1037.16C97.2259 1038.17 96.9534 1039.73 96.9534 1041.84ZM100.035 1048.05C101.013 1048.05 101.775 1047.55 102.32 1046.53C102.865 1045.51 103.137 1043.94 103.137 1041.84C103.137 1040.05 102.963 1038.67 102.613 1037.68L97.9596 1046.97C98.4627 1047.69 99.1545 1048.05 100.035 1048.05Z" fill="url(#paint2_linear_175_190)" fill-opacity="0.6"/>
<path d="M101.293 1071.64H104.374V1072.74H96.3874V1071.64H99.9511V1059.96L96.5551 1061.97L95.9682 1061.04L100.161 1058.46H101.293V1071.64Z" fill="url(#paint3_linear_175_190)" fill-opacity="0.6"/>
<path d="M101.293 1095.39H104.374V1096.49H96.3874V1095.39H99.9511V1083.71L96.5551 1085.72L95.9682 1084.79L100.161 1082.21H101.293V1095.39Z" fill="url(#paint4_linear_175_190)" fill-opacity="0.6"/>
<path d="M100.035 1105.76C101.53 1105.76 102.662 1106.39 103.431 1107.65C104.213 1108.89 104.605 1110.71 104.605 1113.09C104.605 1115.47 104.213 1117.3 103.431 1118.56C102.662 1119.82 101.53 1120.45 100.035 1120.45C98.5536 1120.45 97.4216 1119.82 96.639 1118.56C95.8564 1117.3 95.4651 1115.47 95.4651 1113.09C95.4651 1110.72 95.8564 1108.91 96.639 1107.65C97.4216 1106.39 98.5536 1105.76 100.035 1105.76ZM96.9534 1113.09C96.9534 1114.78 97.1072 1116.1 97.4146 1117.06L102.068 1107.85C101.579 1107.2 100.901 1106.88 100.035 1106.88C99.0706 1106.88 98.316 1107.39 97.771 1108.42C97.2259 1109.43 96.9534 1110.99 96.9534 1113.09ZM100.035 1119.31C101.013 1119.31 101.775 1118.8 102.32 1117.79C102.865 1116.76 103.137 1115.2 103.137 1113.09C103.137 1111.3 102.963 1109.92 102.613 1108.93L97.9596 1118.22C98.4627 1118.95 99.1545 1119.31 100.035 1119.31Z" fill="url(#paint5_linear_175_190)" fill-opacity="0.6"/>
<path d="M101.293 1142.89H104.374V1143.99H96.3874V1142.89H99.9511V1131.21L96.5551 1133.23L95.9682 1132.29L100.161 1129.71H101.293V1142.89Z" fill="url(#paint6_linear_175_190)" fill-opacity="0.6"/>
<path d="M100.035 1153.26C101.53 1153.26 102.662 1153.89 103.431 1155.15C104.213 1156.4 104.605 1158.21 104.605 1160.59C104.605 1162.98 104.213 1164.8 103.431 1166.06C102.662 1167.32 101.53 1167.95 100.035 1167.95C98.5536 1167.95 97.4216 1167.32 96.639 1166.06C95.8564 1164.8 95.4651 1162.98 95.4651 1160.59C95.4651 1158.22 95.8564 1156.41 96.639 1155.15C97.4216 1153.89 98.5536 1153.26 100.035 1153.26ZM96.9534 1160.59C96.9534 1162.28 97.1072 1163.61 97.4146 1164.56L102.068 1155.36C101.579 1154.71 100.901 1154.38 100.035 1154.38C99.0706 1154.38 98.316 1154.89 97.771 1155.92C97.2259 1156.93 96.9534 1158.49 96.9534 1160.59ZM100.035 1166.81C101.013 1166.81 101.775 1166.3 102.32 1165.29C102.865 1164.27 103.137 1162.7 103.137 1160.59C103.137 1158.81 102.963 1157.42 102.613 1156.44L97.9596 1165.73C98.4627 1166.45 99.1545 1166.81 100.035 1166.81Z" fill="url(#paint7_linear_175_190)" fill-opacity="0.6"/>
<path d="M100.035 1177.01C101.53 1177.01 102.662 1177.64 103.431 1178.9C104.213 1180.15 104.605 1181.96 104.605 1184.34C104.605 1186.73 104.213 1188.55 103.431 1189.81C102.662 1191.07 101.53 1191.7 100.035 1191.7C98.5536 1191.7 97.4216 1191.07 96.639 1189.81C95.8564 1188.55 95.4651 1186.73 95.4651 1184.34C95.4651 1181.98 95.8564 1180.16 96.639 1178.9C97.4216 1177.64 98.5536 1177.01 100.035 1177.01ZM96.9534 1184.34C96.9534 1186.03 97.1072 1187.36 97.4146 1188.31L102.068 1179.11C101.579 1178.46 100.901 1178.13 100.035 1178.13C99.0706 1178.13 98.316 1178.64 97.771 1179.67C97.2259 1180.68 96.9534 1182.24 96.9534 1184.34ZM100.035 1190.56C101.013 1190.56 101.775 1190.05 102.32 1189.04C102.865 1188.02 103.137 1186.45 103.137 1184.34C103.137 1182.56 102.963 1181.17 102.613 1180.19L97.9596 1189.48C98.4627 1190.2 99.1545 1190.56 100.035 1190.56Z" fill="url(#paint8_linear_175_190)" fill-opacity="0.6"/>
<path d="M101.293 1214.14H104.374V1215.24H96.3874V1214.14H99.9511V1202.46L96.5551 1204.48L95.9682 1203.54L100.161 1200.97H101.293V1214.14Z" fill="url(#paint9_linear_175_190)" fill-opacity="0.6"/>
<path d="M100.035 1224.51C101.53 1224.51 102.662 1225.14 103.431 1226.4C104.213 1227.65 104.605 1229.46 104.605 1231.85C104.605 1234.23 104.213 1236.05 103.431 1237.31C102.662 1238.57 101.53 1239.2 100.035 1239.2C98.5536 1239.2 97.4216 1238.57 96.639 1237.31C95.8564 1236.05 95.4651 1234.23 95.4651 1231.85C95.4651 1229.48 95.8564 1227.66 96.639 1226.4C97.4216 1225.14 98.5536 1224.51 100.035 1224.51ZM96.9534 1231.85C96.9534 1233.54 97.1072 1234.86 97.4146 1235.82L102.068 1226.61C101.579 1225.96 100.901 1225.63 100.035 1225.63C99.0706 1225.63 98.316 1226.15 97.771 1227.17C97.2259 1228.18 96.9534 1229.74 96.9534 1231.85ZM100.035 1238.06C101.013 1238.06 101.775 1237.55 102.32 1236.54C102.865 1235.52 103.137 1233.95 103.137 1231.85C103.137 1230.06 102.963 1228.67 102.613 1227.69L97.9596 1236.98C98.4627 1237.7 99.1545 1238.06 100.035 1238.06Z" fill="url(#paint10_linear_175_190)" fill-opacity="0.6"/>
<path d="M101.293 1261.65H104.374V1262.75H96.3874V1261.65H99.9511V1249.97L96.5551 1251.98L95.9682 1251.05L100.161 1248.47H101.293V1261.65Z" fill="url(#paint11_linear_175_190)" fill-opacity="0.6"/>
<path d="M101.293 1285.4H104.374V1286.5H96.3874V1285.4H99.9511V1273.72L96.5551 1275.73L95.9682 1274.8L100.161 1272.22H101.293V1285.4Z" fill="url(#paint12_linear_175_190)" fill-opacity="0.6"/>
<path d="M138.965 1034.5C140.46 1034.5 141.592 1035.13 142.361 1036.39C143.144 1037.64 143.535 1039.46 143.535 1041.84C143.535 1044.22 143.144 1046.04 142.361 1047.3C141.592 1048.56 140.46 1049.2 138.965 1049.2C137.484 1049.2 136.352 1048.56 135.569 1047.3C134.787 1046.04 134.395 1044.22 134.395 1041.84C134.395 1039.47 134.787 1037.65 135.569 1036.39C136.352 1035.13 137.484 1034.5 138.965 1034.5ZM135.884 1041.84C135.884 1043.53 136.037 1044.85 136.345 1045.81L140.998 1036.6C140.509 1035.95 139.832 1035.62 138.965 1035.62C138.001 1035.62 137.246 1036.14 136.701 1037.16C136.156 1038.17 135.884 1039.73 135.884 1041.84ZM138.965 1048.05C139.943 1048.05 140.705 1047.55 141.25 1046.53C141.795 1045.51 142.068 1043.94 142.068 1041.84C142.068 1040.05 141.893 1038.67 141.543 1037.68L136.89 1046.97C137.393 1047.69 138.085 1048.05 138.965 1048.05Z" fill="url(#paint13_linear_175_190)" fill-opacity="0.6"/>
<path d="M140.223 1071.64H143.304V1072.74H135.318V1071.64H138.881V1059.96L135.485 1061.97L134.898 1061.04L139.091 1058.46H140.223V1071.64Z" fill="url(#paint14_linear_175_190)" fill-opacity="0.6"/>
<path d="M138.965 1082C140.46 1082 141.592 1082.63 142.361 1083.9C143.144 1085.14 143.535 1086.96 143.535 1089.34C143.535 1091.72 143.144 1093.55 142.361 1094.81C141.592 1096.07 140.46 1096.7 138.965 1096.7C137.484 1096.7 136.352 1096.07 135.569 1094.81C134.787 1093.55 134.395 1091.72 134.395 1089.34C134.395 1086.97 134.787 1085.16 135.569 1083.9C136.352 1082.63 137.484 1082 138.965 1082ZM135.884 1089.34C135.884 1091.03 136.037 1092.35 136.345 1093.31L140.998 1084.1C140.509 1083.45 139.832 1083.13 138.965 1083.13C138.001 1083.13 137.246 1083.64 136.701 1084.66C136.156 1085.68 135.884 1087.23 135.884 1089.34ZM138.965 1095.55C139.943 1095.55 140.705 1095.05 141.25 1094.04C141.795 1093.01 142.068 1091.45 142.068 1089.34C142.068 1087.55 141.893 1086.17 141.543 1085.18L136.89 1094.47C137.393 1095.19 138.085 1095.55 138.965 1095.55Z" fill="url(#paint15_linear_175_190)" fill-opacity="0.6"/>
<path d="M138.965 1105.76C140.46 1105.76 141.592 1106.39 142.361 1107.65C143.144 1108.89 143.535 1110.71 143.535 1113.09C143.535 1115.47 143.144 1117.3 142.361 1118.56C141.592 1119.82 140.46 1120.45 138.965 1120.45C137.484 1120.45 136.352 1119.82 135.569 1118.56C134.787 1117.3 134.395 1115.47 134.395 1113.09C134.395 1110.72 134.787 1108.91 135.569 1107.65C136.352 1106.39 137.484 1105.76 138.965 1105.76ZM135.884 1113.09C135.884 1114.78 136.037 1116.1 136.345 1117.06L140.998 1107.85C140.509 1107.2 139.832 1106.88 138.965 1106.88C138.001 1106.88 137.246 1107.39 136.701 1108.42C136.156 1109.43 135.884 1110.99 135.884 1113.09ZM138.965 1119.31C139.943 1119.31 140.705 1118.8 141.25 1117.79C141.795 1116.76 142.068 1115.2 142.068 1113.09C142.068 1111.3 141.893 1109.92 141.543 1108.93L136.89 1118.22C137.393 1118.95 138.085 1119.31 138.965 1119.31Z" fill="url(#paint16_linear_175_190)" fill-opacity="0.6"/>
<path d="M140.223 1142.89H143.304V1143.99H135.318V1142.89H138.881V1131.21L135.485 1133.23L134.898 1132.29L139.091 1129.71H140.223V1142.89Z" fill="url(#paint17_linear_175_190)" fill-opacity="0.6"/>
<path d="M138.965 1153.26C140.46 1153.26 141.592 1153.89 142.361 1155.15C143.144 1156.4 143.535 1158.21 143.535 1160.59C143.535 1162.98 143.144 1164.8 142.361 1166.06C141.592 1167.32 140.46 1167.95 138.965 1167.95C137.484 1167.95 136.352 1167.32 135.569 1166.06C134.787 1164.8 134.395 1162.98 134.395 1160.59C134.395 1158.22 134.787 1156.41 135.569 1155.15C136.352 1153.89 137.484 1153.26 138.965 1153.26ZM135.884 1160.59C135.884 1162.28 136.037 1163.61 136.345 1164.56L140.998 1155.36C140.509 1154.71 139.832 1154.38 138.965 1154.38C138.001 1154.38 137.246 1154.89 136.701 1155.92C136.156 1156.93 135.884 1158.49 135.884 1160.59ZM138.965 1166.81C139.943 1166.81 140.705 1166.3 141.25 1165.29C141.795 1164.27 142.068 1162.7 142.068 1160.59C142.068 1158.81 141.893 1157.42 141.543 1156.44L136.89 1165.73C137.393 1166.45 138.085 1166.81 138.965 1166.81Z" fill="url(#paint18_linear_175_190)" fill-opacity="0.6"/>
<path d="M140.223 1190.39H143.304V1191.49H135.318V1190.39H138.881V1178.71L135.485 1180.73L134.898 1179.79L139.091 1177.22H140.223V1190.39Z" fill="url(#paint19_linear_175_190)" fill-opacity="0.6"/>
<path d="M138.965 1200.76C140.46 1200.76 141.592 1201.39 142.361 1202.65C143.144 1203.9 143.535 1205.71 143.535 1208.1C143.535 1210.48 143.144 1212.3 142.361 1213.56C141.592 1214.82 140.46 1215.45 138.965 1215.45C137.484 1215.45 136.352 1214.82 135.569 1213.56C134.787 1212.3 134.395 1210.48 134.395 1208.1C134.395 1205.73 134.787 1203.91 135.569 1202.65C136.352 1201.39 137.484 1200.76 138.965 1200.76ZM135.884 1208.1C135.884 1209.79 136.037 1211.11 136.345 1212.07L140.998 1202.86C140.509 1202.21 139.832 1201.88 138.965 1201.88C138.001 1201.88 137.246 1202.39 136.701 1203.42C136.156 1204.43 135.884 1205.99 135.884 1208.1ZM138.965 1214.31C139.943 1214.31 140.705 1213.8 141.25 1212.79C141.795 1211.77 142.068 1210.2 142.068 1208.1C142.068 1206.31 141.893 1204.92 141.543 1203.94L136.89 1213.23C137.393 1213.95 138.085 1214.31 138.965 1214.31Z" fill="url(#paint20_linear_175_190)" fill-opacity="0.6"/>
<path d="M138.965 1224.51C140.46 1224.51 141.592 1225.14 142.361 1226.4C143.144 1227.65 143.535 1229.46 143.535 1231.85C143.535 1234.23 143.144 1236.05 142.361 1237.31C141.592 1238.57 140.46 1239.2 138.965 1239.2C137.484 1239.2 136.352 1238.57 135.569 1237.31C134.787 1236.05 134.395 1234.23 134.395 1231.85C134.395 1229.48 134.787 1227.66 135.569 1226.4C136.352 1225.14 137.484 1224.51 138.965 1224.51ZM135.884 1231.85C135.884 1233.54 136.037 1234.86 136.345 1235.82L140.998 1226.61C140.509 1225.96 139.832 1225.63 138.965 1225.63C138.001 1225.63 137.246 1226.15 136.701 1227.17C136.156 1228.18 135.884 1229.74 135.884 1231.85ZM138.965 1238.06C139.943 1238.06 140.705 1237.55 141.25 1236.54C141.795 1235.52 142.068 1233.95 142.068 1231.85C142.068 1230.06 141.893 1228.67 141.543 1227.69L136.89 1236.98C137.393 1237.7 138.085 1238.06 138.965 1238.06Z" fill="url(#paint21_linear_175_190)" fill-opacity="0.6"/>
<path d="M140.223 1261.65H143.304V1262.75H135.318V1261.65H138.881V1249.97L135.485 1251.98L134.898 1251.05L139.091 1248.47H140.223V1261.65Z" fill="url(#paint22_linear_175_190)" fill-opacity="0.6"/>
<path d="M138.965 1272.01C140.46 1272.01 141.592 1272.64 142.361 1273.9C143.144 1275.15 143.535 1276.97 143.535 1279.35C143.535 1281.73 143.144 1283.55 142.361 1284.81C141.592 1286.08 140.46 1286.71 138.965 1286.71C137.484 1286.71 136.352 1286.08 135.569 1284.81C134.787 1283.55 134.395 1281.73 134.395 1279.35C134.395 1276.98 134.787 1275.16 135.569 1273.9C136.352 1272.64 137.484 1272.01 138.965 1272.01ZM135.884 1279.35C135.884 1281.04 136.037 1282.36 136.345 1283.32L140.998 1274.11C140.509 1273.46 139.832 1273.13 138.965 1273.13C138.001 1273.13 137.246 1273.65 136.701 1274.67C136.156 1275.68 135.884 1277.24 135.884 1279.35ZM138.965 1285.56C139.943 1285.56 140.705 1285.06 141.25 1284.05C141.795 1283.02 142.068 1281.45 142.068 1279.35C142.068 1277.56 141.893 1276.18 141.543 1275.19L136.89 1284.48C137.393 1285.2 138.085 1285.56 138.965 1285.56Z" fill="url(#paint23_linear_175_190)" fill-opacity="0.6"/>
<path d="M140.223 1309.15H143.304V1310.25H135.318V1309.15H138.881V1297.47L135.485 1299.48L134.898 1298.55L139.091 1295.97H140.223V1309.15Z" fill="url(#paint24_linear_175_190)" fill-opacity="0.6"/>
<path d="M140.223 1332.9H143.304V1334H135.318V1332.9H138.881V1321.22L135.485 1323.23L134.898 1322.3L139.091 1319.72H140.223V1332.9Z" fill="url(#paint25_linear_175_190)" fill-opacity="0.6"/>
<path d="M80.5698 1058.25C82.0651 1058.25 83.1971 1058.88 83.9657 1060.14C84.7483 1061.39 85.1396 1063.21 85.1396 1065.59C85.1396 1067.97 84.7483 1069.79 83.9657 1071.05C83.1971 1072.32 82.0651 1072.95 80.5698 1072.95C79.0885 1072.95 77.9565 1072.32 77.1739 1071.05C76.3913 1069.79 76 1067.97 76 1065.59C76 1063.22 76.3913 1061.41 77.1739 1060.14C77.9565 1058.88 79.0885 1058.25 80.5698 1058.25ZM77.4883 1065.59C77.4883 1067.28 77.6421 1068.6 77.9495 1069.56L82.6032 1060.35C82.114 1059.7 81.4363 1059.38 80.5698 1059.38C79.6055 1059.38 78.8509 1059.89 78.3059 1060.91C77.7608 1061.92 77.4883 1063.48 77.4883 1065.59ZM80.5698 1071.8C81.5481 1071.8 82.3097 1071.3 82.8547 1070.29C83.3997 1069.26 83.6722 1067.7 83.6722 1065.59C83.6722 1063.8 83.4976 1062.42 83.1482 1061.43L78.4945 1070.72C78.9976 1071.44 79.6894 1071.8 80.5698 1071.8Z" fill="url(#paint26_linear_175_190)" fill-opacity="0.6"/>
<path d="M80.5698 1082C82.0651 1082 83.1971 1082.63 83.9657 1083.9C84.7483 1085.14 85.1396 1086.96 85.1396 1089.34C85.1396 1091.72 84.7483 1093.55 83.9657 1094.81C83.1971 1096.07 82.0651 1096.7 80.5698 1096.7C79.0885 1096.7 77.9565 1096.07 77.1739 1094.81C76.3913 1093.55 76 1091.72 76 1089.34C76 1086.97 76.3913 1085.16 77.1739 1083.9C77.9565 1082.63 79.0885 1082 80.5698 1082ZM77.4883 1089.34C77.4883 1091.03 77.6421 1092.35 77.9495 1093.31L82.6032 1084.1C82.114 1083.45 81.4363 1083.13 80.5698 1083.13C79.6055 1083.13 78.8509 1083.64 78.3059 1084.66C77.7608 1085.68 77.4883 1087.23 77.4883 1089.34ZM80.5698 1095.55C81.5481 1095.55 82.3097 1095.05 82.8547 1094.04C83.3997 1093.01 83.6722 1091.45 83.6722 1089.34C83.6722 1087.55 83.4976 1086.17 83.1482 1085.18L78.4945 1094.47C78.9976 1095.19 79.6894 1095.55 80.5698 1095.55Z" fill="url(#paint27_linear_175_190)" fill-opacity="0.6"/>
<path d="M81.8276 1119.14H84.909V1120.24H76.9223V1119.14H80.486V1107.46L77.09 1109.48L76.5031 1108.54L80.6956 1105.96H81.8276V1119.14Z" fill="url(#paint28_linear_175_190)" fill-opacity="0.6"/>
<path d="M80.5698 1129.51C82.0651 1129.51 83.1971 1130.14 83.9657 1131.4C84.7483 1132.64 85.1396 1134.46 85.1396 1136.84C85.1396 1139.23 84.7483 1141.05 83.9657 1142.31C83.1971 1143.57 82.0651 1144.2 80.5698 1144.2C79.0885 1144.2 77.9565 1143.57 77.1739 1142.31C76.3913 1141.05 76 1139.23 76 1136.84C76 1134.47 76.3913 1132.66 77.1739 1131.4C77.9565 1130.14 79.0885 1129.51 80.5698 1129.51ZM77.4883 1136.84C77.4883 1138.53 77.6421 1139.86 77.9495 1140.81L82.6032 1131.61C82.114 1130.95 81.4363 1130.63 80.5698 1130.63C79.6055 1130.63 78.8509 1131.14 78.3059 1132.17C77.7608 1133.18 77.4883 1134.74 77.4883 1136.84ZM80.5698 1143.06C81.5481 1143.06 82.3097 1142.55 82.8547 1141.54C83.3997 1140.51 83.6722 1138.95 83.6722 1136.84C83.6722 1135.06 83.4976 1133.67 83.1482 1132.69L78.4945 1141.98C78.9976 1142.7 79.6894 1143.06 80.5698 1143.06Z" fill="url(#paint29_linear_175_190)" fill-opacity="0.6"/>
<path d="M81.8276 1166.64H84.909V1167.74H76.9223V1166.64H80.486V1154.96L77.09 1156.98L76.5031 1156.04L80.6956 1153.47H81.8276V1166.64Z" fill="url(#paint30_linear_175_190)" fill-opacity="0.6"/>
<path d="M81.8276 1190.39H84.909V1191.49H76.9223V1190.39H80.486V1178.71L77.09 1180.73L76.5031 1179.79L80.6956 1177.22H81.8276V1190.39Z" fill="url(#paint31_linear_175_190)" fill-opacity="0.6"/>
<path d="M120.758 1024.13H123.839V1025.24H115.853V1024.13H119.416V1012.46L116.02 1014.47L115.433 1013.54L119.626 1010.96H120.758V1024.13Z" fill="url(#paint32_linear_175_190)" fill-opacity="0.6"/>
<path d="M119.5 1034.5C120.995 1034.5 122.127 1035.13 122.896 1036.39C123.679 1037.64 124.07 1039.46 124.07 1041.84C124.07 1044.22 123.679 1046.04 122.896 1047.3C122.127 1048.56 120.995 1049.2 119.5 1049.2C118.019 1049.2 116.887 1048.56 116.104 1047.3C115.321 1046.04 114.93 1044.22 114.93 1041.84C114.93 1039.47 115.321 1037.65 116.104 1036.39C116.887 1035.13 118.019 1034.5 119.5 1034.5ZM116.419 1041.84C116.419 1043.53 116.572 1044.85 116.88 1045.81L121.533 1036.6C121.044 1035.95 120.366 1035.62 119.5 1035.62C118.536 1035.62 117.781 1036.14 117.236 1037.16C116.691 1038.17 116.419 1039.73 116.419 1041.84ZM119.5 1048.05C120.478 1048.05 121.24 1047.55 121.785 1046.53C122.33 1045.51 122.602 1043.94 122.602 1041.84C122.602 1040.05 122.428 1038.67 122.078 1037.68L117.425 1046.97C117.928 1047.69 118.62 1048.05 119.5 1048.05Z" fill="url(#paint33_linear_175_190)" fill-opacity="0.6"/>
<path d="M120.758 1071.64H123.839V1072.74H115.853V1071.64H119.416V1059.96L116.02 1061.97L115.433 1061.04L119.626 1058.46H120.758V1071.64Z" fill="url(#paint34_linear_175_190)" fill-opacity="0.6"/>
<path d="M120.758 1095.39H123.839V1096.49H115.853V1095.39H119.416V1083.71L116.02 1085.72L115.433 1084.79L119.626 1082.21H120.758V1095.39Z" fill="url(#paint35_linear_175_190)" fill-opacity="0.6"/>
<path d="M119.5 1105.76C120.995 1105.76 122.127 1106.39 122.896 1107.65C123.679 1108.89 124.07 1110.71 124.07 1113.09C124.07 1115.47 123.679 1117.3 122.896 1118.56C122.127 1119.82 120.995 1120.45 119.5 1120.45C118.019 1120.45 116.887 1119.82 116.104 1118.56C115.321 1117.3 114.93 1115.47 114.93 1113.09C114.93 1110.72 115.321 1108.91 116.104 1107.65C116.887 1106.39 118.019 1105.76 119.5 1105.76ZM116.419 1113.09C116.419 1114.78 116.572 1116.1 116.88 1117.06L121.533 1107.85C121.044 1107.2 120.366 1106.88 119.5 1106.88C118.536 1106.88 117.781 1107.39 117.236 1108.42C116.691 1109.43 116.419 1110.99 116.419 1113.09ZM119.5 1119.31C120.478 1119.31 121.24 1118.8 121.785 1117.79C122.33 1116.76 122.602 1115.2 122.602 1113.09C122.602 1111.3 122.428 1109.92 122.078 1108.93L117.425 1118.22C117.928 1118.95 118.62 1119.31 119.5 1119.31Z" fill="url(#paint36_linear_175_190)" fill-opacity="0.6"/>
<path d="M120.758 1142.89H123.839V1143.99H115.853V1142.89H119.416V1131.21L116.02 1133.23L115.433 1132.29L119.626 1129.71H120.758V1142.89Z" fill="url(#paint37_linear_175_190)" fill-opacity="0.6"/>
<path d="M120.758 1166.64H123.839V1167.74H115.853V1166.64H119.416V1154.96L116.02 1156.98L115.433 1156.04L119.626 1153.47H120.758V1166.64Z" fill="url(#paint38_linear_175_190)" fill-opacity="0.6"/>
<path d="M119.5 1177.01C120.995 1177.01 122.127 1177.64 122.896 1178.9C123.679 1180.15 124.07 1181.96 124.07 1184.34C124.07 1186.73 123.679 1188.55 122.896 1189.81C122.127 1191.07 120.995 1191.7 119.5 1191.7C118.019 1191.7 116.887 1191.07 116.104 1189.81C115.321 1188.55 114.93 1186.73 114.93 1184.34C114.93 1181.98 115.321 1180.16 116.104 1178.9C116.887 1177.64 118.019 1177.01 119.5 1177.01ZM116.419 1184.34C116.419 1186.03 116.572 1187.36 116.88 1188.31L121.533 1179.11C121.044 1178.46 120.366 1178.13 119.5 1178.13C118.536 1178.13 117.781 1178.64 117.236 1179.67C116.691 1180.68 116.419 1182.24 116.419 1184.34ZM119.5 1190.56C120.478 1190.56 121.24 1190.05 121.785 1189.04C122.33 1188.02 122.602 1186.45 122.602 1184.34C122.602 1182.56 122.428 1181.17 122.078 1180.19L117.425 1189.48C117.928 1190.2 118.62 1190.56 119.5 1190.56Z" fill="url(#paint39_linear_175_190)" fill-opacity="0.6"/>
<path d="M120.758 1214.14H123.839V1215.24H115.853V1214.14H119.416V1202.46L116.02 1204.48L115.433 1203.54L119.626 1200.97H120.758V1214.14Z" fill="url(#paint40_linear_175_190)" fill-opacity="0.6"/>
<path d="M119.5 1224.51C120.995 1224.51 122.127 1225.14 122.896 1226.4C123.679 1227.65 124.07 1229.46 124.07 1231.85C124.07 1234.23 123.679 1236.05 122.896 1237.31C122.127 1238.57 120.995 1239.2 119.5 1239.2C118.019 1239.2 116.887 1238.57 116.104 1237.31C115.321 1236.05 114.93 1234.23 114.93 1231.85C114.93 1229.48 115.321 1227.66 116.104 1226.4C116.887 1225.14 118.019 1224.51 119.5 1224.51ZM116.419 1231.85C116.419 1233.54 116.572 1234.86 116.88 1235.82L121.533 1226.61C121.044 1225.96 120.366 1225.63 119.5 1225.63C118.536 1225.63 117.781 1226.15 117.236 1227.17C116.691 1228.18 116.419 1229.74 116.419 1231.85ZM119.5 1238.06C120.478 1238.06 121.24 1237.55 121.785 1236.54C122.33 1235.52 122.602 1233.95 122.602 1231.85C122.602 1230.06 122.428 1228.67 122.078 1227.69L117.425 1236.98C117.928 1237.7 118.62 1238.06 119.5 1238.06Z" fill="url(#paint41_linear_175_190)" fill-opacity="0.6"/>
<path d="M158.43 1010.75C159.926 1010.75 161.057 1011.38 161.826 1012.64C162.609 1013.89 163 1015.7 163 1018.09C163 1020.47 162.609 1022.29 161.826 1023.55C161.057 1024.81 159.926 1025.44 158.43 1025.44C156.949 1025.44 155.817 1024.81 155.034 1023.55C154.252 1022.29 153.86 1020.47 153.86 1018.09C153.86 1015.72 154.252 1013.9 155.034 1012.64C155.817 1011.38 156.949 1010.75 158.43 1010.75ZM155.349 1018.09C155.349 1019.78 155.502 1021.1 155.81 1022.06L160.464 1012.85C159.974 1012.2 159.297 1011.87 158.43 1011.87C157.466 1011.87 156.711 1012.39 156.166 1013.41C155.621 1014.42 155.349 1015.98 155.349 1018.09ZM158.43 1024.3C159.408 1024.3 160.17 1023.8 160.715 1022.78C161.26 1021.76 161.533 1020.19 161.533 1018.09C161.533 1016.3 161.358 1014.91 161.009 1013.93L156.355 1023.22C156.858 1023.94 157.55 1024.3 158.43 1024.3Z" fill="url(#paint42_linear_175_190)" fill-opacity="0.6"/>
<path d="M159.688 1047.89H162.769V1048.99H154.783V1047.89H158.346V1036.21L154.95 1038.22L154.363 1037.29L158.556 1034.71H159.688V1047.89Z" fill="url(#paint43_linear_175_190)" fill-opacity="0.6"/>
<path d="M159.688 1071.64H162.769V1072.74H154.783V1071.64H158.346V1059.96L154.95 1061.97L154.363 1061.04L158.556 1058.46H159.688V1071.64Z" fill="url(#paint44_linear_175_190)" fill-opacity="0.6"/>
<path d="M158.43 1082C159.926 1082 161.057 1082.63 161.826 1083.9C162.609 1085.14 163 1086.96 163 1089.34C163 1091.72 162.609 1093.55 161.826 1094.81C161.057 1096.07 159.926 1096.7 158.43 1096.7C156.949 1096.7 155.817 1096.07 155.034 1094.81C154.252 1093.55 153.86 1091.72 153.86 1089.34C153.86 1086.97 154.252 1085.16 155.034 1083.9C155.817 1082.63 156.949 1082 158.43 1082ZM155.349 1089.34C155.349 1091.03 155.502 1092.35 155.81 1093.31L160.464 1084.1C159.974 1083.45 159.297 1083.13 158.43 1083.13C157.466 1083.13 156.711 1083.64 156.166 1084.66C155.621 1085.68 155.349 1087.23 155.349 1089.34ZM158.43 1095.55C159.408 1095.55 160.17 1095.05 160.715 1094.04C161.26 1093.01 161.533 1091.45 161.533 1089.34C161.533 1087.55 161.358 1086.17 161.009 1085.18L156.355 1094.47C156.858 1095.19 157.55 1095.55 158.43 1095.55Z" fill="url(#paint45_linear_175_190)" fill-opacity="0.6"/>
<path d="M158.43 1105.76C159.926 1105.76 161.057 1106.39 161.826 1107.65C162.609 1108.89 163 1110.71 163 1113.09C163 1115.47 162.609 1117.3 161.826 1118.56C161.057 1119.82 159.926 1120.45 158.43 1120.45C156.949 1120.45 155.817 1119.82 155.034 1118.56C154.252 1117.3 153.86 1115.47 153.86 1113.09C153.86 1110.72 154.252 1108.91 155.034 1107.65C155.817 1106.39 156.949 1105.76 158.43 1105.76ZM155.349 1113.09C155.349 1114.78 155.502 1116.1 155.81 1117.06L160.464 1107.85C159.974 1107.2 159.297 1106.88 158.43 1106.88C157.466 1106.88 156.711 1107.39 156.166 1108.42C155.621 1109.43 155.349 1110.99 155.349 1113.09ZM158.43 1119.31C159.408 1119.31 160.17 1118.8 160.715 1117.79C161.26 1116.76 161.533 1115.2 161.533 1113.09C161.533 1111.3 161.358 1109.92 161.009 1108.93L156.355 1118.22C156.858 1118.95 157.55 1119.31 158.43 1119.31Z" fill="url(#paint46_linear_175_190)" fill-opacity="0.6"/>
<g opacity="0.6">
<path d="M986.93 687C988.356 687 989.436 687.605 990.17 688.815C990.916 690.011 991.29 691.753 991.29 694.04C991.29 696.327 990.916 698.075 990.17 699.285C989.436 700.495 988.356 701.1 986.93 701.1C985.517 701.1 984.437 700.495 983.69 699.285C982.943 698.075 982.57 696.327 982.57 694.04C982.57 691.767 982.943 690.025 983.69 688.815C984.437 687.605 985.517 687 986.93 687ZM983.99 694.04C983.99 695.662 984.137 696.932 984.43 697.849L988.87 689.014C988.403 688.389 987.756 688.077 986.93 688.077C986.01 688.077 985.29 688.569 984.77 689.553C984.25 690.523 983.99 692.019 983.99 694.04ZM986.93 700.003C987.863 700.003 988.59 699.518 989.11 698.547C989.63 697.564 989.89 696.061 989.89 694.04C989.89 692.325 989.723 690.995 989.39 690.051L984.95 698.966C985.43 699.658 986.09 700.003 986.93 700.003Z" fill="url(#paint47_linear_175_190)"/>
<path d="M988.13 722.637H991.07V723.694H983.45V722.637H986.85V711.428L983.61 713.363L983.05 712.465L987.05 709.992H988.13V722.637Z" fill="url(#paint48_linear_175_190)"/>
<path d="M986.93 732.586C988.356 732.586 989.436 733.191 990.17 734.4C990.916 735.597 991.29 737.339 991.29 739.626C991.29 741.913 990.916 743.661 990.17 744.871C989.436 746.081 988.356 746.686 986.93 746.686C985.517 746.686 984.437 746.081 983.69 744.871C982.943 743.661 982.57 741.913 982.57 739.626C982.57 737.352 982.943 735.61 983.69 734.4C984.437 733.191 985.517 732.586 986.93 732.586ZM983.99 739.626C983.99 741.248 984.137 742.518 984.43 743.435L988.87 734.6C988.403 733.975 987.756 733.663 986.93 733.663C986.01 733.663 985.29 734.155 984.77 735.138C984.25 736.109 983.99 737.605 983.99 739.626ZM986.93 745.589C987.863 745.589 988.59 745.104 989.11 744.133C989.63 743.149 989.89 741.647 989.89 739.626C989.89 737.911 989.723 736.581 989.39 735.637L984.95 744.552C985.43 745.243 986.09 745.589 986.93 745.589Z" fill="url(#paint49_linear_175_190)"/>
<path d="M988.13 768.222H991.07V769.279H983.45V768.222H986.85V757.014L983.61 758.948L983.05 758.051L987.05 755.578H988.13V768.222Z" fill="url(#paint50_linear_175_190)"/>
<path d="M988.13 791.015H991.07V792.072H983.45V791.015H986.85V779.807L983.61 781.741L983.05 780.844L987.05 778.371H988.13V791.015Z" fill="url(#paint51_linear_175_190)"/>
<path d="M986.93 800.964C988.356 800.964 989.436 801.569 990.17 802.779C990.916 803.976 991.29 805.717 991.29 808.004C991.29 810.291 990.916 812.039 990.17 813.249C989.436 814.459 988.356 815.064 986.93 815.064C985.517 815.064 984.437 814.459 983.69 813.249C982.943 812.039 982.57 810.291 982.57 808.004C982.57 805.731 982.943 803.989 983.69 802.779C984.437 801.569 985.517 800.964 986.93 800.964ZM983.99 808.004C983.99 809.626 984.137 810.896 984.43 811.813L988.87 802.978C988.403 802.353 987.756 802.041 986.93 802.041C986.01 802.041 985.29 802.533 984.77 803.517C984.25 804.487 983.99 805.983 983.99 808.004ZM986.93 813.967C987.863 813.967 988.59 813.482 989.11 812.511C989.63 811.528 989.89 810.025 989.89 808.004C989.89 806.289 989.723 804.959 989.39 804.015L984.95 812.93C985.43 813.622 986.09 813.967 986.93 813.967Z" fill="url(#paint52_linear_175_190)"/>
<path d="M988.13 836.601H991.07V837.658H983.45V836.601H986.85V825.392L983.61 827.327L983.05 826.429L987.05 823.956H988.13V836.601Z" fill="url(#paint53_linear_175_190)"/>
<path d="M986.93 846.55C988.356 846.55 989.436 847.155 990.17 848.365C990.916 849.561 991.29 851.303 991.29 853.59C991.29 855.877 990.916 857.625 990.17 858.835C989.436 860.045 988.356 860.65 986.93 860.65C985.517 860.65 984.437 860.045 983.69 858.835C982.943 857.625 982.57 855.877 982.57 853.59C982.57 851.316 982.943 849.574 983.69 848.365C984.437 847.155 985.517 846.55 986.93 846.55ZM983.99 853.59C983.99 855.212 984.137 856.482 984.43 857.399L988.87 848.564C988.403 847.939 987.756 847.627 986.93 847.627C986.01 847.627 985.29 848.119 984.77 849.102C984.25 850.073 983.99 851.569 983.99 853.59ZM986.93 859.553C987.863 859.553 988.59 859.068 989.11 858.097C989.63 857.113 989.89 855.611 989.89 853.59C989.89 851.875 989.723 850.545 989.39 849.601L984.95 858.516C985.43 859.207 986.09 859.553 986.93 859.553Z" fill="url(#paint54_linear_175_190)"/>
<path d="M986.93 869.342C988.356 869.342 989.436 869.947 990.17 871.157C990.916 872.354 991.29 874.096 991.29 876.383C991.29 878.669 990.916 880.418 990.17 881.628C989.436 882.838 988.356 883.443 986.93 883.443C985.517 883.443 984.437 882.838 983.69 881.628C982.943 880.418 982.57 878.669 982.57 876.383C982.57 874.109 982.943 872.367 983.69 871.157C984.437 869.947 985.517 869.342 986.93 869.342ZM983.99 876.383C983.99 878.005 984.137 879.274 984.43 880.192L988.87 871.357C988.403 870.732 987.756 870.419 986.93 870.419C986.01 870.419 985.29 870.911 984.77 871.895C984.25 872.866 983.99 874.362 983.99 876.383ZM986.93 882.346C987.863 882.346 988.59 881.86 989.11 880.89C989.63 879.906 989.89 878.404 989.89 876.383C989.89 874.667 989.723 873.338 989.39 872.394L984.95 881.309C985.43 882 986.09 882.346 986.93 882.346Z" fill="url(#paint55_linear_175_190)"/>
<path d="M988.13 904.979H991.07V906.036H983.45V904.979H986.85V893.771L983.61 895.705L983.05 894.808L987.05 892.335H988.13V904.979Z" fill="url(#paint56_linear_175_190)"/>
<path d="M986.93 914.928C988.356 914.928 989.436 915.533 990.17 916.743C990.916 917.94 991.29 919.681 991.29 921.968C991.29 924.255 990.916 926.003 990.17 927.213C989.436 928.423 988.356 929.028 986.93 929.028C985.517 929.028 984.437 928.423 983.69 927.213C982.943 926.003 982.57 924.255 982.57 921.968C982.57 919.695 982.943 917.953 983.69 916.743C984.437 915.533 985.517 914.928 986.93 914.928ZM983.99 921.968C983.99 923.59 984.137 924.86 984.43 925.777L988.87 916.942C988.403 916.317 987.756 916.005 986.93 916.005C986.01 916.005 985.29 916.497 984.77 917.481C984.25 918.451 983.99 919.947 983.99 921.968ZM986.93 927.931C987.863 927.931 988.59 927.446 989.11 926.475C989.63 925.492 989.89 923.989 989.89 921.968C989.89 920.253 989.723 918.923 989.39 917.979L984.95 926.894C985.43 927.586 986.09 927.931 986.93 927.931Z" fill="url(#paint57_linear_175_190)"/>
<path d="M988.13 950.565H991.07V951.622H983.45V950.565H986.85V939.356L983.61 941.291L983.05 940.393L987.05 937.92H988.13V950.565Z" fill="url(#paint58_linear_175_190)"/>
<path d="M988.13 973.357H991.07V974.414H983.45V973.357H986.85V962.149L983.61 964.084L983.05 963.186L987.05 960.713H988.13V973.357Z" fill="url(#paint59_linear_175_190)"/>
<path d="M1024.07 732.586C1025.5 732.586 1026.58 733.191 1027.31 734.4C1028.06 735.597 1028.43 737.339 1028.43 739.626C1028.43 741.913 1028.06 743.661 1027.31 744.871C1026.58 746.081 1025.5 746.686 1024.07 746.686C1022.66 746.686 1021.58 746.081 1020.83 744.871C1020.08 743.661 1019.71 741.913 1019.71 739.626C1019.71 737.352 1020.08 735.61 1020.83 734.4C1021.58 733.191 1022.66 732.586 1024.07 732.586ZM1021.13 739.626C1021.13 741.248 1021.28 742.518 1021.57 743.435L1026.01 734.6C1025.54 733.975 1024.9 733.663 1024.07 733.663C1023.15 733.663 1022.43 734.155 1021.91 735.138C1021.39 736.109 1021.13 737.605 1021.13 739.626ZM1024.07 745.589C1025 745.589 1025.73 745.104 1026.25 744.133C1026.77 743.149 1027.03 741.647 1027.03 739.626C1027.03 737.911 1026.86 736.581 1026.53 735.637L1022.09 744.552C1022.57 745.243 1023.23 745.589 1024.07 745.589Z" fill="url(#paint60_linear_175_190)"/>
<path d="M1025.27 768.222H1028.21V769.279H1020.59V768.222H1023.99V757.014L1020.75 758.948L1020.19 758.051L1024.19 755.578H1025.27V768.222Z" fill="url(#paint61_linear_175_190)"/>
<path d="M1024.07 778.171C1025.5 778.171 1026.58 778.776 1027.31 779.986C1028.06 781.183 1028.43 782.924 1028.43 785.211C1028.43 787.498 1028.06 789.247 1027.31 790.457C1026.58 791.666 1025.5 792.271 1024.07 792.271C1022.66 792.271 1021.58 791.666 1020.83 790.457C1020.08 789.247 1019.71 787.498 1019.71 785.211C1019.71 782.938 1020.08 781.196 1020.83 779.986C1021.58 778.776 1022.66 778.171 1024.07 778.171ZM1021.13 785.211C1021.13 786.833 1021.28 788.103 1021.57 789.021L1026.01 780.186C1025.54 779.561 1024.9 779.248 1024.07 779.248C1023.15 779.248 1022.43 779.74 1021.91 780.724C1021.39 781.695 1021.13 783.19 1021.13 785.211ZM1024.07 791.174C1025 791.174 1025.73 790.689 1026.25 789.719C1026.77 788.735 1027.03 787.232 1027.03 785.211C1027.03 783.496 1026.86 782.167 1026.53 781.223L1022.09 790.137C1022.57 790.829 1023.23 791.174 1024.07 791.174Z" fill="url(#paint62_linear_175_190)"/>
<path d="M1024.07 800.964C1025.5 800.964 1026.58 801.569 1027.31 802.779C1028.06 803.976 1028.43 805.717 1028.43 808.004C1028.43 810.291 1028.06 812.039 1027.31 813.249C1026.58 814.459 1025.5 815.064 1024.07 815.064C1022.66 815.064 1021.58 814.459 1020.83 813.249C1020.08 812.039 1019.71 810.291 1019.71 808.004C1019.71 805.731 1020.08 803.989 1020.83 802.779C1021.58 801.569 1022.66 800.964 1024.07 800.964ZM1021.13 808.004C1021.13 809.626 1021.28 810.896 1021.57 811.813L1026.01 802.978C1025.54 802.353 1024.9 802.041 1024.07 802.041C1023.15 802.041 1022.43 802.533 1021.91 803.517C1021.39 804.487 1021.13 805.983 1021.13 808.004ZM1024.07 813.967C1025 813.967 1025.73 813.482 1026.25 812.511C1026.77 811.528 1027.03 810.025 1027.03 808.004C1027.03 806.289 1026.86 804.959 1026.53 804.015L1022.09 812.93C1022.57 813.622 1023.23 813.967 1024.07 813.967Z" fill="url(#paint63_linear_175_190)"/>
<path d="M1025.27 836.601H1028.21V837.658H1020.59V836.601H1023.99V825.392L1020.75 827.327L1020.19 826.429L1024.19 823.956H1025.27V836.601Z" fill="url(#paint64_linear_175_190)"/>
<path d="M1024.07 846.55C1025.5 846.55 1026.58 847.155 1027.31 848.365C1028.06 849.561 1028.43 851.303 1028.43 853.59C1028.43 855.877 1028.06 857.625 1027.31 858.835C1026.58 860.045 1025.5 860.65 1024.07 860.65C1022.66 860.65 1021.58 860.045 1020.83 858.835C1020.08 857.625 1019.71 855.877 1019.71 853.59C1019.71 851.316 1020.08 849.574 1020.83 848.365C1021.58 847.155 1022.66 846.55 1024.07 846.55ZM1021.13 853.59C1021.13 855.212 1021.28 856.482 1021.57 857.399L1026.01 848.564C1025.54 847.939 1024.9 847.627 1024.07 847.627C1023.15 847.627 1022.43 848.119 1021.91 849.102C1021.39 850.073 1021.13 851.569 1021.13 853.59ZM1024.07 859.553C1025 859.553 1025.73 859.068 1026.25 858.097C1026.77 857.113 1027.03 855.611 1027.03 853.59C1027.03 851.875 1026.86 850.545 1026.53 849.601L1022.09 858.516C1022.57 859.207 1023.23 859.553 1024.07 859.553Z" fill="url(#paint65_linear_175_190)"/>
<path d="M1025.27 882.186H1028.21V883.243H1020.59V882.186H1023.99V870.978L1020.75 872.912L1020.19 872.015L1024.19 869.542H1025.27V882.186Z" fill="url(#paint66_linear_175_190)"/>
<path d="M1024.07 892.135C1025.5 892.135 1026.58 892.74 1027.31 893.95C1028.06 895.147 1028.43 896.888 1028.43 899.175C1028.43 901.462 1028.06 903.211 1027.31 904.421C1026.58 905.63 1025.5 906.235 1024.07 906.235C1022.66 906.235 1021.58 905.63 1020.83 904.421C1020.08 903.211 1019.71 901.462 1019.71 899.175C1019.71 896.902 1020.08 895.16 1020.83 893.95C1021.58 892.74 1022.66 892.135 1024.07 892.135ZM1021.13 899.175C1021.13 900.797 1021.28 902.067 1021.57 902.985L1026.01 894.15C1025.54 893.525 1024.9 893.212 1024.07 893.212C1023.15 893.212 1022.43 893.704 1021.91 894.688C1021.39 895.659 1021.13 897.154 1021.13 899.175ZM1024.07 905.139C1025 905.139 1025.73 904.653 1026.25 903.683C1026.77 902.699 1027.03 901.196 1027.03 899.175C1027.03 897.46 1026.86 896.131 1026.53 895.187L1022.09 904.101C1022.57 904.793 1023.23 905.139 1024.07 905.139Z" fill="url(#paint67_linear_175_190)"/>
<path d="M1024.07 914.928C1025.5 914.928 1026.58 915.533 1027.31 916.743C1028.06 917.94 1028.43 919.681 1028.43 921.968C1028.43 924.255 1028.06 926.003 1027.31 927.213C1026.58 928.423 1025.5 929.028 1024.07 929.028C1022.66 929.028 1021.58 928.423 1020.83 927.213C1020.08 926.003 1019.71 924.255 1019.71 921.968C1019.71 919.695 1020.08 917.953 1020.83 916.743C1021.58 915.533 1022.66 914.928 1024.07 914.928ZM1021.13 921.968C1021.13 923.59 1021.28 924.86 1021.57 925.777L1026.01 916.942C1025.54 916.317 1024.9 916.005 1024.07 916.005C1023.15 916.005 1022.43 916.497 1021.91 917.481C1021.39 918.451 1021.13 919.947 1021.13 921.968ZM1024.07 927.931C1025 927.931 1025.73 927.446 1026.25 926.475C1026.77 925.492 1027.03 923.989 1027.03 921.968C1027.03 920.253 1026.86 918.923 1026.53 917.979L1022.09 926.894C1022.57 927.586 1023.23 927.931 1024.07 927.931Z" fill="url(#paint68_linear_175_190)"/>
<path d="M1025.27 950.565H1028.21V951.622H1020.59V950.565H1023.99V939.356L1020.75 941.291L1020.19 940.393L1024.19 937.92H1025.27V950.565Z" fill="url(#paint69_linear_175_190)"/>
<path d="M1024.07 960.514C1025.5 960.514 1026.58 961.119 1027.31 962.329C1028.06 963.525 1028.43 965.267 1028.43 967.554C1028.43 969.841 1028.06 971.589 1027.31 972.799C1026.58 974.009 1025.5 974.614 1024.07 974.614C1022.66 974.614 1021.58 974.009 1020.83 972.799C1020.08 971.589 1019.71 969.841 1019.71 967.554C1019.71 965.28 1020.08 963.538 1020.83 962.329C1021.58 961.119 1022.66 960.514 1024.07 960.514ZM1021.13 967.554C1021.13 969.176 1021.28 970.446 1021.57 971.363L1026.01 962.528C1025.54 961.903 1024.9 961.591 1024.07 961.591C1023.15 961.591 1022.43 962.083 1021.91 963.066C1021.39 964.037 1021.13 965.533 1021.13 967.554ZM1024.07 973.517C1025 973.517 1025.73 973.032 1026.25 972.061C1026.77 971.077 1027.03 969.575 1027.03 967.554C1027.03 965.839 1026.86 964.509 1026.53 963.565L1022.09 972.48C1022.57 973.171 1023.23 973.517 1024.07 973.517Z" fill="url(#paint70_linear_175_190)"/>
<path d="M1025.27 996.15H1028.21V997.207H1020.59V996.15H1023.99V984.942L1020.75 986.876L1020.19 985.979L1024.19 983.506H1025.27V996.15Z" fill="url(#paint71_linear_175_190)"/>
<path d="M1025.27 1018.94H1028.21V1020H1020.59V1018.94H1023.99V1007.73L1020.75 1009.67L1020.19 1008.77L1024.19 1006.3H1025.27V1018.94Z" fill="url(#paint72_linear_175_190)"/>
<path d="M968.36 755.378C969.786 755.378 970.866 755.983 971.599 757.193C972.346 758.39 972.719 760.132 972.719 762.419C972.719 764.705 972.346 766.454 971.599 767.664C970.866 768.874 969.786 769.479 968.36 769.479C966.946 769.479 965.867 768.874 965.12 767.664C964.373 766.454 964 764.705 964 762.419C964 760.145 964.373 758.403 965.12 757.193C965.867 755.983 966.946 755.378 968.36 755.378ZM965.42 762.419C965.42 764.041 965.567 765.31 965.86 766.228L970.3 757.393C969.833 756.768 969.186 756.455 968.36 756.455C967.44 756.455 966.72 756.947 966.2 757.931C965.68 758.902 965.42 760.398 965.42 762.419ZM968.36 768.382C969.293 768.382 970.02 767.896 970.54 766.926C971.06 765.942 971.319 764.44 971.319 762.419C971.319 760.703 971.153 759.374 970.82 758.43L966.38 767.345C966.86 768.036 967.52 768.382 968.36 768.382Z" fill="url(#paint73_linear_175_190)"/>
<path d="M968.36 778.171C969.786 778.171 970.866 778.776 971.599 779.986C972.346 781.183 972.719 782.924 972.719 785.211C972.719 787.498 972.346 789.247 971.599 790.457C970.866 791.666 969.786 792.271 968.36 792.271C966.946 792.271 965.867 791.666 965.12 790.457C964.373 789.247 964 787.498 964 785.211C964 782.938 964.373 781.196 965.12 779.986C965.867 778.776 966.946 778.171 968.36 778.171ZM965.42 785.211C965.42 786.833 965.567 788.103 965.86 789.021L970.3 780.186C969.833 779.561 969.186 779.248 968.36 779.248C967.44 779.248 966.72 779.74 966.2 780.724C965.68 781.695 965.42 783.19 965.42 785.211ZM968.36 791.174C969.293 791.174 970.02 790.689 970.54 789.719C971.06 788.735 971.319 787.232 971.319 785.211C971.319 783.496 971.153 782.167 970.82 781.223L966.38 790.137C966.86 790.829 967.52 791.174 968.36 791.174Z" fill="url(#paint74_linear_175_190)"/>
<path d="M969.56 813.808H972.499V814.865H964.88V813.808H968.28V802.599L965.04 804.534L964.48 803.636L968.48 801.163H969.56V813.808Z" fill="url(#paint75_linear_175_190)"/>
<path d="M968.36 823.757C969.786 823.757 970.866 824.362 971.599 825.572C972.346 826.768 972.719 828.51 972.719 830.797C972.719 833.084 972.346 834.832 971.599 836.042C970.866 837.252 969.786 837.857 968.36 837.857C966.946 837.857 965.867 837.252 965.12 836.042C964.373 834.832 964 833.084 964 830.797C964 828.523 964.373 826.782 965.12 825.572C965.867 824.362 966.946 823.757 968.36 823.757ZM965.42 830.797C965.42 832.419 965.567 833.689 965.86 834.606L970.3 825.771C969.833 825.146 969.186 824.834 968.36 824.834C967.44 824.834 966.72 825.326 966.2 826.31C965.68 827.28 965.42 828.776 965.42 830.797ZM968.36 836.76C969.293 836.76 970.02 836.275 970.54 835.304C971.06 834.32 971.319 832.818 971.319 830.797C971.319 829.082 971.153 827.752 970.82 826.808L966.38 835.723C966.86 836.414 967.52 836.76 968.36 836.76Z" fill="url(#paint76_linear_175_190)"/>
<path d="M969.56 859.393H972.499V860.45H964.88V859.393H968.28V848.185L965.04 850.12L964.48 849.222L968.48 846.749H969.56V859.393Z" fill="url(#paint77_linear_175_190)"/>
<path d="M969.56 882.186H972.499V883.243H964.88V882.186H968.28V870.978L965.04 872.912L964.48 872.015L968.48 869.542H969.56V882.186Z" fill="url(#paint78_linear_175_190)"/>
<path d="M1006.7 722.637H1009.64V723.694H1002.02V722.637H1005.42V711.428L1002.18 713.363L1001.62 712.465L1005.62 709.992H1006.7V722.637Z" fill="url(#paint79_linear_175_190)"/>
<path d="M1005.5 732.586C1006.93 732.586 1008.01 733.191 1008.74 734.4C1009.49 735.597 1009.86 737.339 1009.86 739.626C1009.86 741.913 1009.49 743.661 1008.74 744.871C1008.01 746.081 1006.93 746.686 1005.5 746.686C1004.09 746.686 1003.01 746.081 1002.26 744.871C1001.51 743.661 1001.14 741.913 1001.14 739.626C1001.14 737.352 1001.51 735.61 1002.26 734.4C1003.01 733.191 1004.09 732.586 1005.5 732.586ZM1002.56 739.626C1002.56 741.248 1002.71 742.518 1003 743.435L1007.44 734.6C1006.97 733.975 1006.33 733.663 1005.5 733.663C1004.58 733.663 1003.86 734.155 1003.34 735.138C1002.82 736.109 1002.56 737.605 1002.56 739.626ZM1005.5 745.589C1006.43 745.589 1007.16 745.104 1007.68 744.133C1008.2 743.149 1008.46 741.647 1008.46 739.626C1008.46 737.911 1008.29 736.581 1007.96 735.637L1003.52 744.552C1004 745.243 1004.66 745.589 1005.5 745.589Z" fill="url(#paint80_linear_175_190)"/>
<path d="M1006.7 768.222H1009.64V769.279H1002.02V768.222H1005.42V757.014L1002.18 758.948L1001.62 758.051L1005.62 755.578H1006.7V768.222Z" fill="url(#paint81_linear_175_190)"/>
<path d="M1006.7 791.015H1009.64V792.072H1002.02V791.015H1005.42V779.807L1002.18 781.741L1001.62 780.844L1005.62 778.371H1006.7V791.015Z" fill="url(#paint82_linear_175_190)"/>
<path d="M1005.5 800.964C1006.93 800.964 1008.01 801.569 1008.74 802.779C1009.49 803.976 1009.86 805.717 1009.86 808.004C1009.86 810.291 1009.49 812.039 1008.74 813.249C1008.01 814.459 1006.93 815.064 1005.5 815.064C1004.09 815.064 1003.01 814.459 1002.26 813.249C1001.51 812.039 1001.14 810.291 1001.14 808.004C1001.14 805.731 1001.51 803.989 1002.26 802.779C1003.01 801.569 1004.09 800.964 1005.5 800.964ZM1002.56 808.004C1002.56 809.626 1002.71 810.896 1003 811.813L1007.44 802.978C1006.97 802.353 1006.33 802.041 1005.5 802.041C1004.58 802.041 1003.86 802.533 1003.34 803.517C1002.82 804.487 1002.56 805.983 1002.56 808.004ZM1005.5 813.967C1006.43 813.967 1007.16 813.482 1007.68 812.511C1008.2 811.528 1008.46 810.025 1008.46 808.004C1008.46 806.289 1008.29 804.959 1007.96 804.015L1003.52 812.93C1004 813.622 1004.66 813.967 1005.5 813.967Z" fill="url(#paint83_linear_175_190)"/>
<path d="M1006.7 836.601H1009.64V837.658H1002.02V836.601H1005.42V825.392L1002.18 827.327L1001.62 826.429L1005.62 823.956H1006.7V836.601Z" fill="url(#paint84_linear_175_190)"/>
<path d="M1006.7 859.393H1009.64V860.45H1002.02V859.393H1005.42V848.185L1002.18 850.12L1001.62 849.222L1005.62 846.749H1006.7V859.393Z" fill="url(#paint85_linear_175_190)"/>
<path d="M1005.5 869.342C1006.93 869.342 1008.01 869.947 1008.74 871.157C1009.49 872.354 1009.86 874.096 1009.86 876.383C1009.86 878.669 1009.49 880.418 1008.74 881.628C1008.01 882.838 1006.93 883.443 1005.5 883.443C1004.09 883.443 1003.01 882.838 1002.26 881.628C1001.51 880.418 1001.14 878.669 1001.14 876.383C1001.14 874.109 1001.51 872.367 1002.26 871.157C1003.01 869.947 1004.09 869.342 1005.5 869.342ZM1002.56 876.383C1002.56 878.005 1002.71 879.274 1003 880.192L1007.44 871.357C1006.97 870.732 1006.33 870.419 1005.5 870.419C1004.58 870.419 1003.86 870.911 1003.34 871.895C1002.82 872.866 1002.56 874.362 1002.56 876.383ZM1005.5 882.346C1006.43 882.346 1007.16 881.86 1007.68 880.89C1008.2 879.906 1008.46 878.404 1008.46 876.383C1008.46 874.667 1008.29 873.338 1007.96 872.394L1003.52 881.309C1004 882 1004.66 882.346 1005.5 882.346Z" fill="url(#paint86_linear_175_190)"/>
<path d="M1006.7 904.979H1009.64V906.036H1002.02V904.979H1005.42V893.771L1002.18 895.705L1001.62 894.808L1005.62 892.335H1006.7V904.979Z" fill="url(#paint87_linear_175_190)"/>
<path d="M1005.5 914.928C1006.93 914.928 1008.01 915.533 1008.74 916.743C1009.49 917.94 1009.86 919.681 1009.86 921.968C1009.86 924.255 1009.49 926.003 1008.74 927.213C1008.01 928.423 1006.93 929.028 1005.5 929.028C1004.09 929.028 1003.01 928.423 1002.26 927.213C1001.51 926.003 1001.14 924.255 1001.14 921.968C1001.14 919.695 1001.51 917.953 1002.26 916.743C1003.01 915.533 1004.09 914.928 1005.5 914.928ZM1002.56 921.968C1002.56 923.59 1002.71 924.86 1003 925.777L1007.44 916.942C1006.97 916.317 1006.33 916.005 1005.5 916.005C1004.58 916.005 1003.86 916.497 1003.34 917.481C1002.82 918.451 1002.56 919.947 1002.56 921.968ZM1005.5 927.931C1006.43 927.931 1007.16 927.446 1007.68 926.475C1008.2 925.492 1008.46 923.989 1008.46 921.968C1008.46 920.253 1008.29 918.923 1007.96 917.979L1003.52 926.894C1004 927.586 1004.66 927.931 1005.5 927.931Z" fill="url(#paint88_linear_175_190)"/>
<path d="M1042.64 709.793C1044.07 709.793 1045.15 710.398 1045.88 711.608C1046.63 712.804 1047 714.546 1047 716.833C1047 719.12 1046.63 720.868 1045.88 722.078C1045.15 723.288 1044.07 723.893 1042.64 723.893C1041.23 723.893 1040.15 723.288 1039.4 722.078C1038.65 720.868 1038.28 719.12 1038.28 716.833C1038.28 714.559 1038.65 712.818 1039.4 711.608C1040.15 710.398 1041.23 709.793 1042.64 709.793ZM1039.7 716.833C1039.7 718.455 1039.85 719.725 1040.14 720.642L1044.58 711.807C1044.11 711.182 1043.47 710.87 1042.64 710.87C1041.72 710.87 1041 711.362 1040.48 712.346C1039.96 713.316 1039.7 714.812 1039.7 716.833ZM1042.64 722.796C1043.57 722.796 1044.3 722.311 1044.82 721.34C1045.34 720.356 1045.6 718.854 1045.6 716.833C1045.6 715.118 1045.43 713.788 1045.1 712.844L1040.66 721.759C1041.14 722.45 1041.8 722.796 1042.64 722.796Z" fill="url(#paint89_linear_175_190)"/>
<path d="M1043.84 745.429H1046.78V746.486H1039.16V745.429H1042.56V734.221L1039.32 736.156L1038.76 735.258L1042.76 732.785H1043.84V745.429Z" fill="url(#paint90_linear_175_190)"/>
<path d="M1043.84 768.222H1046.78V769.279H1039.16V768.222H1042.56V757.014L1039.32 758.948L1038.76 758.051L1042.76 755.578H1043.84V768.222Z" fill="url(#paint91_linear_175_190)"/>
<path d="M1042.64 778.171C1044.07 778.171 1045.15 778.776 1045.88 779.986C1046.63 781.183 1047 782.924 1047 785.211C1047 787.498 1046.63 789.247 1045.88 790.457C1045.15 791.666 1044.07 792.271 1042.64 792.271C1041.23 792.271 1040.15 791.666 1039.4 790.457C1038.65 789.247 1038.28 787.498 1038.28 785.211C1038.28 782.938 1038.65 781.196 1039.4 779.986C1040.15 778.776 1041.23 778.171 1042.64 778.171ZM1039.7 785.211C1039.7 786.833 1039.85 788.103 1040.14 789.021L1044.58 780.186C1044.11 779.561 1043.47 779.248 1042.64 779.248C1041.72 779.248 1041 779.74 1040.48 780.724C1039.96 781.695 1039.7 783.19 1039.7 785.211ZM1042.64 791.174C1043.57 791.174 1044.3 790.689 1044.82 789.719C1045.34 788.735 1045.6 787.232 1045.6 785.211C1045.6 783.496 1045.43 782.167 1045.1 781.223L1040.66 790.137C1041.14 790.829 1041.8 791.174 1042.64 791.174Z" fill="url(#paint92_linear_175_190)"/>
<path d="M1042.64 800.964C1044.07 800.964 1045.15 801.569 1045.88 802.779C1046.63 803.976 1047 805.717 1047 808.004C1047 810.291 1046.63 812.039 1045.88 813.249C1045.15 814.459 1044.07 815.064 1042.64 815.064C1041.23 815.064 1040.15 814.459 1039.4 813.249C1038.65 812.039 1038.28 810.291 1038.28 808.004C1038.28 805.731 1038.65 803.989 1039.4 802.779C1040.15 801.569 1041.23 800.964 1042.64 800.964ZM1039.7 808.004C1039.7 809.626 1039.85 810.896 1040.14 811.813L1044.58 802.978C1044.11 802.353 1043.47 802.041 1042.64 802.041C1041.72 802.041 1041 802.533 1040.48 803.517C1039.96 804.487 1039.7 805.983 1039.7 808.004ZM1042.64 813.967C1043.57 813.967 1044.3 813.482 1044.82 812.511C1045.34 811.528 1045.6 810.025 1045.6 808.004C1045.6 806.289 1045.43 804.959 1045.1 804.015L1040.66 812.93C1041.14 813.622 1041.8 813.967 1042.64 813.967Z" fill="url(#paint93_linear_175_190)"/>
</g>
<defs>
<filter id="filter0_f_175_190" x="-491.19" y="0.809998" width="2141.38" height="1500.38" filterUnits="userSpaceOnUse" color-interpolation-filters="sRGB">
<feFlood flood-opacity="0" result="BackgroundImageFix"/>
<feBlend mode="normal" in="SourceGraphic" in2="BackgroundImageFix" result="shape"/>
<feGaussianBlur stdDeviation="200.095" result="effect1_foregroundBlur_175_190"/>
</filter>
<linearGradient id="paint0_linear_175_190" x1="119.5" y1="987" x2="119.5" y2="1298.38" gradientUnits="userSpaceOnUse">
<stop stop-color="#F7DD43"/>
<stop offset="1" stop-color="#F7DD43" stop-opacity="0"/>
</linearGradient>
<linearGradient id="paint1_linear_175_190" x1="119.5" y1="987" x2="119.5" y2="1298.38" gradientUnits="userSpaceOnUse">
<stop stop-color="#F7DD43"/>
<stop offset="1" stop-color="#F7DD43" stop-opacity="0"/>
</linearGradient>
<linearGradient id="paint2_linear_175_190" x1="119.5" y1="987" x2="119.5" y2="1298.38" gradientUnits="userSpaceOnUse">
<stop stop-color="#F7DD43"/>
<stop offset="1" stop-color="#F7DD43" stop-opacity="0"/>
</linearGradient>
<linearGradient id="paint3_linear_175_190" x1="119.5" y1="987" x2="119.5" y2="1298.38" gradientUnits="userSpaceOnUse">
<stop stop-color="#F7DD43"/>
<stop offset="1" stop-color="#F7DD43" stop-opacity="0"/>
</linearGradient>
<linearGradient id="paint4_linear_175_190" x1="119.5" y1="987" x2="119.5" y2="1298.38" gradientUnits="userSpaceOnUse">
<stop stop-color="#F7DD43"/>
<stop offset="1" stop-color="#F7DD43" stop-opacity="0"/>
</linearGradient>
<linearGradient id="paint5_linear_175_190" x1="119.5" y1="987" x2="119.5" y2="1298.38" gradientUnits="userSpaceOnUse">
<stop stop-color="#F7DD43"/>
<stop offset="1" stop-color="#F7DD43" stop-opacity="0"/>
</linearGradient>
<linearGradient id="paint6_linear_175_190" x1="119.5" y1="987" x2="119.5" y2="1298.38" gradientUnits="userSpaceOnUse">
<stop stop-color="#F7DD43"/>
<stop offset="1" stop-color="#F7DD43" stop-opacity="0"/>
</linearGradient>
<linearGradient id="paint7_linear_175_190" x1="119.5" y1="987" x2="119.5" y2="1298.38" gradientUnits="userSpaceOnUse">
<stop stop-color="#F7DD43"/>
<stop offset="1" stop-color="#F7DD43" stop-opacity="0"/>
</linearGradient>
<linearGradient id="paint8_linear_175_190" x1="119.5" y1="987" x2="119.5" y2="1298.38" gradientUnits="userSpaceOnUse">
<stop stop-color="#F7DD43"/>
<stop offset="1" stop-color="#F7DD43" stop-opacity="0"/>
</linearGradient>
<linearGradient id="paint9_linear_175_190" x1="119.5" y1="987" x2="119.5" y2="1298.38" gradientUnits="userSpaceOnUse">
<stop stop-color="#F7DD43"/>
<stop offset="1" stop-color="#F7DD43" stop-opacity="0"/>
</linearGradient>
<linearGradient id="paint10_linear_175_190" x1="119.5" y1="987" x2="119.5" y2="1298.38" gradientUnits="userSpaceOnUse">
<stop stop-color="#F7DD43"/>
<stop offset="1" stop-color="#F7DD43" stop-opacity="0"/>
</linearGradient>
<linearGradient id="paint11_linear_175_190" x1="119.5" y1="987" x2="119.5" y2="1298.38" gradientUnits="userSpaceOnUse">
<stop stop-color="#F7DD43"/>
<stop offset="1" stop-color="#F7DD43" stop-opacity="0"/>
</linearGradient>
<linearGradient id="paint12_linear_175_190" x1="119.5" y1="987" x2="119.5" y2="1298.38" gradientUnits="userSpaceOnUse">
<stop stop-color="#F7DD43"/>
<stop offset="1" stop-color="#F7DD43" stop-opacity="0"/>
</linearGradient>
<linearGradient id="paint13_linear_175_190" x1="119.5" y1="987" x2="119.5" y2="1298.38" gradientUnits="userSpaceOnUse">
<stop stop-color="#F7DD43"/>
<stop offset="1" stop-color="#F7DD43" stop-opacity="0"/>
</linearGradient>
<linearGradient id="paint14_linear_175_190" x1="119.5" y1="987" x2="119.5" y2="1298.38" gradientUnits="userSpaceOnUse">
<stop stop-color="#F7DD43"/>
<stop offset="1" stop-color="#F7DD43" stop-opacity="0"/>
</linearGradient>
<linearGradient id="paint15_linear_175_190" x1="119.5" y1="987" x2="119.5" y2="1298.38" gradientUnits="userSpaceOnUse">
<stop stop-color="#F7DD43"/>
<stop offset="1" stop-color="#F7DD43" stop-opacity="0"/>
</linearGradient>
<linearGradient id="paint16_linear_175_190" x1="119.5" y1="987" x2="119.5" y2="1298.38" gradientUnits="userSpaceOnUse">
<stop stop-color="#F7DD43"/>
<stop offset="1" stop-color="#F7DD43" stop-opacity="0"/>
</linearGradient>
<linearGradient id="paint17_linear_175_190" x1="119.5" y1="987" x2="119.5" y2="1298.38" gradientUnits="userSpaceOnUse">
<stop stop-color="#F7DD43"/>
<stop offset="1" stop-color="#F7DD43" stop-opacity="0"/>
</linearGradient>
<linearGradient id="paint18_linear_175_190" x1="119.5" y1="987" x2="119.5" y2="1298.38" gradientUnits="userSpaceOnUse">
<stop stop-color="#F7DD43"/>
<stop offset="1" stop-color="#F7DD43" stop-opacity="0"/>
</linearGradient>
<linearGradient id="paint19_linear_175_190" x1="119.5" y1="987" x2="119.5" y2="1298.38" gradientUnits="userSpaceOnUse">
<stop stop-color="#F7DD43"/>
<stop offset="1" stop-color="#F7DD43" stop-opacity="0"/>
</linearGradient>
<linearGradient id="paint20_linear_175_190" x1="119.5" y1="987" x2="119.5" y2="1298.38" gradientUnits="userSpaceOnUse">
<stop stop-color="#F7DD43"/>
<stop offset="1" stop-color="#F7DD43" stop-opacity="0"/>
</linearGradient>
<linearGradient id="paint21_linear_175_190" x1="119.5" y1="987" x2="119.5" y2="1298.38" gradientUnits="userSpaceOnUse">
<stop stop-color="#F7DD43"/>
<stop offset="1" stop-color="#F7DD43" stop-opacity="0"/>
</linearGradient>
<linearGradient id="paint22_linear_175_190" x1="119.5" y1="987" x2="119.5" y2="1298.38" gradientUnits="userSpaceOnUse">
<stop stop-color="#F7DD43"/>
<stop offset="1" stop-color="#F7DD43" stop-opacity="0"/>
</linearGradient>
<linearGradient id="paint23_linear_175_190" x1="119.5" y1="987" x2="119.5" y2="1298.38" gradientUnits="userSpaceOnUse">
<stop stop-color="#F7DD43"/>
<stop offset="1" stop-color="#F7DD43" stop-opacity="0"/>
</linearGradient>
<linearGradient id="paint24_linear_175_190" x1="119.5" y1="987" x2="119.5" y2="1298.38" gradientUnits="userSpaceOnUse">
<stop stop-color="#F7DD43"/>
<stop offset="1" stop-color="#F7DD43" stop-opacity="0"/>
</linearGradient>
<linearGradient id="paint25_linear_175_190" x1="119.5" y1="987" x2="119.5" y2="1298.38" gradientUnits="userSpaceOnUse">
<stop stop-color="#F7DD43"/>
<stop offset="1" stop-color="#F7DD43" stop-opacity="0"/>
</linearGradient>
<linearGradient id="paint26_linear_175_190" x1="119.5" y1="987" x2="119.5" y2="1298.38" gradientUnits="userSpaceOnUse">
<stop stop-color="#F7DD43"/>
<stop offset="1" stop-color="#F7DD43" stop-opacity="0"/>
</linearGradient>
<linearGradient id="paint27_linear_175_190" x1="119.5" y1="987" x2="119.5" y2="1298.38" gradientUnits="userSpaceOnUse">
<stop stop-color="#F7DD43"/>
<stop offset="1" stop-color="#F7DD43" stop-opacity="0"/>
</linearGradient>
<linearGradient id="paint28_linear_175_190" x1="119.5" y1="987" x2="119.5" y2="1298.38" gradientUnits="userSpaceOnUse">
<stop stop-color="#F7DD43"/>
<stop offset="1" stop-color="#F7DD43" stop-opacity="0"/>
</linearGradient>
<linearGradient id="paint29_linear_175_190" x1="119.5" y1="987" x2="119.5" y2="1298.38" gradientUnits="userSpaceOnUse">
<stop stop-color="#F7DD43"/>
<stop offset="1" stop-color="#F7DD43" stop-opacity="0"/>
</linearGradient>
<linearGradient id="paint30_linear_175_190" x1="119.5" y1="987" x2="119.5" y2="1298.38" gradientUnits="userSpaceOnUse">
<stop stop-color="#F7DD43"/>
<stop offset="1" stop-color="#F7DD43" stop-opacity="0"/>
</linearGradient>
<linearGradient id="paint31_linear_175_190" x1="119.5" y1="987" x2="119.5" y2="1298.38" gradientUnits="userSpaceOnUse">
<stop stop-color="#F7DD43"/>
<stop offset="1" stop-color="#F7DD43" stop-opacity="0"/>
</linearGradient>
<linearGradient id="paint32_linear_175_190" x1="119.5" y1="987" x2="119.5" y2="1298.38" gradientUnits="userSpaceOnUse">
<stop stop-color="#F7DD43"/>
<stop offset="1" stop-color="#F7DD43" stop-opacity="0"/>
</linearGradient>
<linearGradient id="paint33_linear_175_190" x1="119.5" y1="987" x2="119.5" y2="1298.38" gradientUnits="userSpaceOnUse">
<stop stop-color="#F7DD43"/>
<stop offset="1" stop-color="#F7DD43" stop-opacity="0"/>
</linearGradient>
<linearGradient id="paint34_linear_175_190" x1="119.5" y1="987" x2="119.5" y2="1298.38" gradientUnits="userSpaceOnUse">
<stop stop-color="#F7DD43"/>
<stop offset="1" stop-color="#F7DD43" stop-opacity="0"/>
</linearGradient>
<linearGradient id="paint35_linear_175_190" x1="119.5" y1="987" x2="119.5" y2="1298.38" gradientUnits="userSpaceOnUse">
<stop stop-color="#F7DD43"/>
<stop offset="1" stop-color="#F7DD43" stop-opacity="0"/>
</linearGradient>
<linearGradient id="paint36_linear_175_190" x1="119.5" y1="987" x2="119.5" y2="1298.38" gradientUnits="userSpaceOnUse">
<stop stop-color="#F7DD43"/>
<stop offset="1" stop-color="#F7DD43" stop-opacity="0"/>
</linearGradient>
<linearGradient id="paint37_linear_175_190" x1="119.5" y1="987" x2="119.5" y2="1298.38" gradientUnits="userSpaceOnUse">
<stop stop-color="#F7DD43"/>
<stop offset="1" stop-color="#F7DD43" stop-opacity="0"/>
</linearGradient>
<linearGradient id="paint38_linear_175_190" x1="119.5" y1="987" x2="119.5" y2="1298.38" gradientUnits="userSpaceOnUse">
<stop stop-color="#F7DD43"/>
<stop offset="1" stop-color="#F7DD43" stop-opacity="0"/>
</linearGradient>
<linearGradient id="paint39_linear_175_190" x1="119.5" y1="987" x2="119.5" y2="1298.38" gradientUnits="userSpaceOnUse">
<stop stop-color="#F7DD43"/>
<stop offset="1" stop-color="#F7DD43" stop-opacity="0"/>
</linearGradient>
<linearGradient id="paint40_linear_175_190" x1="119.5" y1="987" x2="119.5" y2="1298.38" gradientUnits="userSpaceOnUse">
<stop stop-color="#F7DD43"/>
<stop offset="1" stop-color="#F7DD43" stop-opacity="0"/>
</linearGradient>
<linearGradient id="paint41_linear_175_190" x1="119.5" y1="987" x2="119.5" y2="1298.38" gradientUnits="userSpaceOnUse">
<stop stop-color="#F7DD43"/>
<stop offset="1" stop-color="#F7DD43" stop-opacity="0"/>
</linearGradient>
<linearGradient id="paint42_linear_175_190" x1="119.5" y1="987" x2="119.5" y2="1298.38" gradientUnits="userSpaceOnUse">
<stop stop-color="#F7DD43"/>
<stop offset="1" stop-color="#F7DD43" stop-opacity="0"/>
</linearGradient>
<linearGradient id="paint43_linear_175_190" x1="119.5" y1="987" x2="119.5" y2="1298.38" gradientUnits="userSpaceOnUse">
<stop stop-color="#F7DD43"/>
<stop offset="1" stop-color="#F7DD43" stop-opacity="0"/>
</linearGradient>
<linearGradient id="paint44_linear_175_190" x1="119.5" y1="987" x2="119.5" y2="1298.38" gradientUnits="userSpaceOnUse">
<stop stop-color="#F7DD43"/>
<stop offset="1" stop-color="#F7DD43" stop-opacity="0"/>
</linearGradient>
<linearGradient id="paint45_linear_175_190" x1="119.5" y1="987" x2="119.5" y2="1298.38" gradientUnits="userSpaceOnUse">
<stop stop-color="#F7DD43"/>
<stop offset="1" stop-color="#F7DD43" stop-opacity="0"/>
</linearGradient>
<linearGradient id="paint46_linear_175_190" x1="119.5" y1="987" x2="119.5" y2="1298.38" gradientUnits="userSpaceOnUse">
<stop stop-color="#F7DD43"/>
<stop offset="1" stop-color="#F7DD43" stop-opacity="0"/>
</linearGradient>
<linearGradient id="paint47_linear_175_190" x1="1005.5" y1="687" x2="1005.5" y2="985.818" gradientUnits="userSpaceOnUse">
<stop stop-color="#F7DD43"/>
<stop offset="1" stop-color="#F7DD43" stop-opacity="0"/>
</linearGradient>
<linearGradient id="paint48_linear_175_190" x1="1005.5" y1="687" x2="1005.5" y2="985.818" gradientUnits="userSpaceOnUse">
<stop stop-color="#F7DD43"/>
<stop offset="1" stop-color="#F7DD43" stop-opacity="0"/>
</linearGradient>
<linearGradient id="paint49_linear_175_190" x1="1005.5" y1="687" x2="1005.5" y2="985.818" gradientUnits="userSpaceOnUse">
<stop stop-color="#F7DD43"/>
<stop offset="1" stop-color="#F7DD43" stop-opacity="0"/>
</linearGradient>
<linearGradient id="paint50_linear_175_190" x1="1005.5" y1="687" x2="1005.5" y2="985.818" gradientUnits="userSpaceOnUse">
<stop stop-color="#F7DD43"/>
<stop offset="1" stop-color="#F7DD43" stop-opacity="0"/>
</linearGradient>
<linearGradient id="paint51_linear_175_190" x1="1005.5" y1="687" x2="1005.5" y2="985.818" gradientUnits="userSpaceOnUse">
<stop stop-color="#F7DD43"/>
<stop offset="1" stop-color="#F7DD43" stop-opacity="0"/>
</linearGradient>
<linearGradient id="paint52_linear_175_190" x1="1005.5" y1="687" x2="1005.5" y2="985.818" gradientUnits="userSpaceOnUse">
<stop stop-color="#F7DD43"/>
<stop offset="1" stop-color="#F7DD43" stop-opacity="0"/>
</linearGradient>
<linearGradient id="paint53_linear_175_190" x1="1005.5" y1="687" x2="1005.5" y2="985.818" gradientUnits="userSpaceOnUse">
<stop stop-color="#F7DD43"/>
<stop offset="1" stop-color="#F7DD43" stop-opacity="0"/>
</linearGradient>
<linearGradient id="paint54_linear_175_190" x1="1005.5" y1="687" x2="1005.5" y2="985.818" gradientUnits="userSpaceOnUse">
<stop stop-color="#F7DD43"/>
<stop offset="1" stop-color="#F7DD43" stop-opacity="0"/>
</linearGradient>
<linearGradient id="paint55_linear_175_190" x1="1005.5" y1="687" x2="1005.5" y2="985.818" gradientUnits="userSpaceOnUse">
<stop stop-color="#F7DD43"/>
<stop offset="1" stop-color="#F7DD43" stop-opacity="0"/>
</linearGradient>
<linearGradient id="paint56_linear_175_190" x1="1005.5" y1="687" x2="1005.5" y2="985.818" gradientUnits="userSpaceOnUse">
<stop stop-color="#F7DD43"/>
<stop offset="1" stop-color="#F7DD43" stop-opacity="0"/>
</linearGradient>
<linearGradient id="paint57_linear_175_190" x1="1005.5" y1="687" x2="1005.5" y2="985.818" gradientUnits="userSpaceOnUse">
<stop stop-color="#F7DD43"/>
<stop offset="1" stop-color="#F7DD43" stop-opacity="0"/>
</linearGradient>
<linearGradient id="paint58_linear_175_190" x1="1005.5" y1="687" x2="1005.5" y2="985.818" gradientUnits="userSpaceOnUse">
<stop stop-color="#F7DD43"/>
<stop offset="1" stop-color="#F7DD43" stop-opacity="0"/>
</linearGradient>
<linearGradient id="paint59_linear_175_190" x1="1005.5" y1="687" x2="1005.5" y2="985.818" gradientUnits="userSpaceOnUse">
<stop stop-color="#F7DD43"/>
<stop offset="1" stop-color="#F7DD43" stop-opacity="0"/>
</linearGradient>
<linearGradient id="paint60_linear_175_190" x1="1005.5" y1="687" x2="1005.5" y2="985.818" gradientUnits="userSpaceOnUse">
<stop stop-color="#F7DD43"/>
<stop offset="1" stop-color="#F7DD43" stop-opacity="0"/>
</linearGradient>
<linearGradient id="paint61_linear_175_190" x1="1005.5" y1="687" x2="1005.5" y2="985.818" gradientUnits="userSpaceOnUse">
<stop stop-color="#F7DD43"/>
<stop offset="1" stop-color="#F7DD43" stop-opacity="0"/>
</linearGradient>
<linearGradient id="paint62_linear_175_190" x1="1005.5" y1="687" x2="1005.5" y2="985.818" gradientUnits="userSpaceOnUse">
<stop stop-color="#F7DD43"/>
<stop offset="1" stop-color="#F7DD43" stop-opacity="0"/>
</linearGradient>
<linearGradient id="paint63_linear_175_190" x1="1005.5" y1="687" x2="1005.5" y2="985.818" gradientUnits="userSpaceOnUse">
<stop stop-color="#F7DD43"/>
<stop offset="1" stop-color="#F7DD43" stop-opacity="0"/>
</linearGradient>
<linearGradient id="paint64_linear_175_190" x1="1005.5" y1="687" x2="1005.5" y2="985.818" gradientUnits="userSpaceOnUse">
<stop stop-color="#F7DD43"/>
<stop offset="1" stop-color="#F7DD43" stop-opacity="0"/>
</linearGradient>
<linearGradient id="paint65_linear_175_190" x1="1005.5" y1="687" x2="1005.5" y2="985.818" gradientUnits="userSpaceOnUse">
<stop stop-color="#F7DD43"/>
<stop offset="1" stop-color="#F7DD43" stop-opacity="0"/>
</linearGradient>
<linearGradient id="paint66_linear_175_190" x1="1005.5" y1="687" x2="1005.5" y2="985.818" gradientUnits="userSpaceOnUse">
<stop stop-color="#F7DD43"/>
<stop offset="1" stop-color="#F7DD43" stop-opacity="0"/>
</linearGradient>
<linearGradient id="paint67_linear_175_190" x1="1005.5" y1="687" x2="1005.5" y2="985.818" gradientUnits="userSpaceOnUse">
<stop stop-color="#F7DD43"/>
<stop offset="1" stop-color="#F7DD43" stop-opacity="0"/>
</linearGradient>
<linearGradient id="paint68_linear_175_190" x1="1005.5" y1="687" x2="1005.5" y2="985.818" gradientUnits="userSpaceOnUse">
<stop stop-color="#F7DD43"/>
<stop offset="1" stop-color="#F7DD43" stop-opacity="0"/>
</linearGradient>
<linearGradient id="paint69_linear_175_190" x1="1005.5" y1="687" x2="1005.5" y2="985.818" gradientUnits="userSpaceOnUse">
<stop stop-color="#F7DD43"/>
<stop offset="1" stop-color="#F7DD43" stop-opacity="0"/>
</linearGradient>
<linearGradient id="paint70_linear_175_190" x1="1005.5" y1="687" x2="1005.5" y2="985.818" gradientUnits="userSpaceOnUse">
<stop stop-color="#F7DD43"/>
<stop offset="1" stop-color="#F7DD43" stop-opacity="0"/>
</linearGradient>
<linearGradient id="paint71_linear_175_190" x1="1005.5" y1="687" x2="1005.5" y2="985.818" gradientUnits="userSpaceOnUse">
<stop stop-color="#F7DD43"/>
<stop offset="1" stop-color="#F7DD43" stop-opacity="0"/>
</linearGradient>
<linearGradient id="paint72_linear_175_190" x1="1005.5" y1="687" x2="1005.5" y2="985.818" gradientUnits="userSpaceOnUse">
<stop stop-color="#F7DD43"/>
<stop offset="1" stop-color="#F7DD43" stop-opacity="0"/>
</linearGradient>
<linearGradient id="paint73_linear_175_190" x1="1005.5" y1="687" x2="1005.5" y2="985.818" gradientUnits="userSpaceOnUse">
<stop stop-color="#F7DD43"/>
<stop offset="1" stop-color="#F7DD43" stop-opacity="0"/>
</linearGradient>
<linearGradient id="paint74_linear_175_190" x1="1005.5" y1="687" x2="1005.5" y2="985.818" gradientUnits="userSpaceOnUse">
<stop stop-color="#F7DD43"/>
<stop offset="1" stop-color="#F7DD43" stop-opacity="0"/>
</linearGradient>
<linearGradient id="paint75_linear_175_190" x1="1005.5" y1="687" x2="1005.5" y2="985.818" gradientUnits="userSpaceOnUse">
<stop stop-color="#F7DD43"/>
<stop offset="1" stop-color="#F7DD43" stop-opacity="0"/>
</linearGradient>
<linearGradient id="paint76_linear_175_190" x1="1005.5" y1="687" x2="1005.5" y2="985.818" gradientUnits="userSpaceOnUse">
<stop stop-color="#F7DD43"/>
<stop offset="1" stop-color="#F7DD43" stop-opacity="0"/>
</linearGradient>
<linearGradient id="paint77_linear_175_190" x1="1005.5" y1="687" x2="1005.5" y2="985.818" gradientUnits="userSpaceOnUse">
<stop stop-color="#F7DD43"/>
<stop offset="1" stop-color="#F7DD43" stop-opacity="0"/>
</linearGradient>
<linearGradient id="paint78_linear_175_190" x1="1005.5" y1="687" x2="1005.5" y2="985.818" gradientUnits="userSpaceOnUse">
<stop stop-color="#F7DD43"/>
<stop offset="1" stop-color="#F7DD43" stop-opacity="0"/>
</linearGradient>
<linearGradient id="paint79_linear_175_190" x1="1005.5" y1="687" x2="1005.5" y2="985.818" gradientUnits="userSpaceOnUse">
<stop stop-color="#F7DD43"/>
<stop offset="1" stop-color="#F7DD43" stop-opacity="0"/>
</linearGradient>
<linearGradient id="paint80_linear_175_190" x1="1005.5" y1="687" x2="1005.5" y2="985.818" gradientUnits="userSpaceOnUse">
<stop stop-color="#F7DD43"/>
<stop offset="1" stop-color="#F7DD43" stop-opacity="0"/>
</linearGradient>
<linearGradient id="paint81_linear_175_190" x1="1005.5" y1="687" x2="1005.5" y2="985.818" gradientUnits="userSpaceOnUse">
<stop stop-color="#F7DD43"/>
<stop offset="1" stop-color="#F7DD43" stop-opacity="0"/>
</linearGradient>
<linearGradient id="paint82_linear_175_190" x1="1005.5" y1="687" x2="1005.5" y2="985.818" gradientUnits="userSpaceOnUse">
<stop stop-color="#F7DD43"/>
<stop offset="1" stop-color="#F7DD43" stop-opacity="0"/>
</linearGradient>
<linearGradient id="paint83_linear_175_190" x1="1005.5" y1="687" x2="1005.5" y2="985.818" gradientUnits="userSpaceOnUse">
<stop stop-color="#F7DD43"/>
<stop offset="1" stop-color="#F7DD43" stop-opacity="0"/>
</linearGradient>
<linearGradient id="paint84_linear_175_190" x1="1005.5" y1="687" x2="1005.5" y2="985.818" gradientUnits="userSpaceOnUse">
<stop stop-color="#F7DD43"/>
<stop offset="1" stop-color="#F7DD43" stop-opacity="0"/>
</linearGradient>
<linearGradient id="paint85_linear_175_190" x1="1005.5" y1="687" x2="1005.5" y2="985.818" gradientUnits="userSpaceOnUse">
<stop stop-color="#F7DD43"/>
<stop offset="1" stop-color="#F7DD43" stop-opacity="0"/>
</linearGradient>
<linearGradient id="paint86_linear_175_190" x1="1005.5" y1="687" x2="1005.5" y2="985.818" gradientUnits="userSpaceOnUse">
<stop stop-color="#F7DD43"/>
<stop offset="1" stop-color="#F7DD43" stop-opacity="0"/>
</linearGradient>
<linearGradient id="paint87_linear_175_190" x1="1005.5" y1="687" x2="1005.5" y2="985.818" gradientUnits="userSpaceOnUse">
<stop stop-color="#F7DD43"/>
<stop offset="1" stop-color="#F7DD43" stop-opacity="0"/>
</linearGradient>
<linearGradient id="paint88_linear_175_190" x1="1005.5" y1="687" x2="1005.5" y2="985.818" gradientUnits="userSpaceOnUse">
<stop stop-color="#F7DD43"/>
<stop offset="1" stop-color="#F7DD43" stop-opacity="0"/>
</linearGradient>
<linearGradient id="paint89_linear_175_190" x1="1005.5" y1="687" x2="1005.5" y2="985.818" gradientUnits="userSpaceOnUse">
<stop stop-color="#F7DD43"/>
<stop offset="1" stop-color="#F7DD43" stop-opacity="0"/>
</linearGradient>
<linearGradient id="paint90_linear_175_190" x1="1005.5" y1="687" x2="1005.5" y2="985.818" gradientUnits="userSpaceOnUse">
<stop stop-color="#F7DD43"/>
<stop offset="1" stop-color="#F7DD43" stop-opacity="0"/>
</linearGradient>
<linearGradient id="paint91_linear_175_190" x1="1005.5" y1="687" x2="1005.5" y2="985.818" gradientUnits="userSpaceOnUse">
<stop stop-color="#F7DD43"/>
<stop offset="1" stop-color="#F7DD43" stop-opacity="0"/>
</linearGradient>
<linearGradient id="paint92_linear_175_190" x1="1005.5" y1="687" x2="1005.5" y2="985.818" gradientUnits="userSpaceOnUse">
<stop stop-color="#F7DD43"/>
<stop offset="1" stop-color="#F7DD43" stop-opacity="0"/>
</linearGradient>
<linearGradient id="paint93_linear_175_190" x1="1005.5" y1="687" x2="1005.5" y2="985.818" gradientUnits="userSpaceOnUse">
<stop stop-color="#F7DD43"/>
<stop offset="1" stop-color="#F7DD43" stop-opacity="0"/>
</linearGradient>
</defs>
</svg>

